<svg width="632.8314453125px" height="178.4px" xmlns="http://www.w3.org/2000/svg" viewBox="-66.41572265625001 -14.200000000000003 632.8314453125 178.4" style="background: rgba(0, 0, 0, 0);" preserveAspectRatio="xMidYMid"><defs><linearGradient id="editing-shiny-gradient" x1="0.04322727117869957" x2="0.9567727288213004" y1="0.2966316784620999" y2="0.7033683215379001" gradientUnits="objectBoundingBox"><stop offset="0.0" stop-color="#ffb200"></stop><stop offset="0.5" stop-color="#e10057"></stop><stop offset="1.0" stop-color="#5A1A80"></stop></linearGradient><linearGradient id="editing-shiny-gradient2" x1="0" x2="0" y1="0" y2="1"><stop offset="0.2" stop-color="#fff" stop-opacity="0.8"></stop><stop offset="0.8" stop-color="#fff" stop-opacity="0"></stop></linearGradient><filter id="editing-shiny2" x="-100%" y="-100%" width="300%" height="300%"><feMorphology operator="erode" radius="2"></feMorphology></filter><filter id="editing-shiny" x="-100%" y="-100%" width="300%" height="300%"><feFlood flood-color="#fff" result="flood"></feFlood><feConvolveMatrix in="SourceGraphic" result="conv" order="8,8" divisor="1" kernelMatrix="0 0 0 0 0 0 0 0 0 0 0 1 1 0 0 0 0 0 0 1 1 0 0 0 0 0 1 0 0 1 0 0 0 0 1 0 0 1 0 0 0 1 0 0 0 0 1 0 0 1 1 0 0 1 1 0 0 0 0 1 1 0 0 0 "></feConvolveMatrix><feOffset dx="0" dy="4" in="conv" result="offset"></feOffset><feComposite operator="in" in="flood" in2="offset" result="comp"></feComposite><feGaussianBlur in="offset" stdDeviation="3" result="shadow"></feGaussianBlur><feColorMatrix in="shadow" type="matrix" values="0.7 0 0 0 0  0 0.7 0 0 0  0 0 0.7 0 0  0 0 0 0.3 0" result="dark-shadow"></feColorMatrix><feOffset dx="0" dy="4" in="dark-shadow" result="offset-shadow"></feOffset><feOffset dx="0" dy="2" in="conv" result="offset-2"></feOffset><feComposite operator="out" in="offset" in2="offset-2" result="edge-diff"></feComposite><feGaussianBlur in="edge-diff" stdDeviation="1" result="edge-blur"></feGaussianBlur><feColorMatrix in="edge-blur" result="edge-shadow" type="matrix" values="0 0 0 0 0  0 0 0 0 0  0 0 0 0 0  0 0 0 0.5 0"></feColorMatrix><feComposite operator="in" in="edge-shadow" in2="offset" result="edge-shadow-in"></feComposite><feOffset dx="0" dy="1" in="edge-shadow-in" result="edge-shadow-final"></feOffset><feMerge result="out"><feMergeNode in="offset-shadow"></feMergeNode><feMergeNode in="comp"></feMergeNode><feMergeNode in="edge-shadow-final"></feMergeNode><feMergeNode in="SourceGraphic"></feMergeNode></feMerge></filter></defs><g filter="url(#editing-shiny)"><g transform="translate(26.010380148887634, 112.5)"><path d="M47.20-53L47.20-53L47.20-53Q39.10-53 33.20-55.70L33.20-55.70L30-39.50L49.30-39.50L49.30-39.50Q49.30-34.20 46.65-30.85L46.65-30.85L46.65-30.85Q44-27.50 39.20-27.50L39.20-27.50L39.20-27.50Q34-27.50 29.20-29.40L29.20-29.40L29.20-29.40Q28.20-29.80 28.10-29.90L28.10-29.90L22.40 0L0.60 0L13.30-66L57.90-66L57.90-66Q57.90-59.90 55.05-56.45L55.05-56.45L55.05-56.45Q52.20-53 47.20-53ZM79.40-5.50L79.40-5.50L79.40-5.50Q76.30 2 66.40 2L66.40 2L66.40 2Q61.30 2 58.10-1.50L58.10-1.50L58.10-1.50Q55.40-4.60 55.40-7.70L55.40-7.70L55.40-7.70Q55.40-15.80 59.10-31.60L59.10-31.60L62.80-51L83.10-53L77-21.40L77-21.40Q75.30-14 75.30-11.40L75.30-11.40L75.30-11.40Q75.30-5.70 79.40-5.50ZM64.60-64.90L64.60-64.90L64.60-64.90Q64.60-68.80 67.85-70.90L67.85-70.90L67.85-70.90Q71.10-73 75.80-73L75.80-73L75.80-73Q80.50-73 83.35-70.90L83.35-70.90L83.35-70.90Q86.20-68.80 86.20-64.90L86.20-64.90L86.20-64.90Q86.20-61 83.05-59L83.05-59L83.05-59Q79.90-57 75.20-57L75.20-57L75.20-57Q70.50-57 67.55-59L67.55-59L67.55-59Q64.60-61 64.60-64.90ZM119.20-28.10L119.20-28.10L119.20-28.10Q122.80-34.50 122.80-41L122.80-41L122.80-41Q122.80-45.30 119.70-45.30L119.70-45.30L119.70-45.30Q117.30-45.30 114.80-41.20L114.80-41.20L114.80-41.20Q112.20-37.10 111.40-31.80L111.40-31.80L106.20 0L85.50 2L95.70-51L112.20-53L110.40-42.90L110.40-42.90Q115.30-53 126.30-53L126.30-53L126.30-53Q132.10-53 135.25-50L135.25-50L135.25-50Q138.40-47 138.40-40.85L138.40-40.85L138.40-40.85Q138.40-34.70 134.35-30.80L134.35-30.80L134.35-30.80Q130.30-26.90 123.40-26.90L123.40-26.90L123.40-26.90Q120.40-26.90 119.20-28.10ZM169.90-35.10L169.90-35.10L169.90-35.10Q171.30-38.80 171.30-42L171.30-42L171.30-42Q171.30-47.90 166.50-47.90L166.50-47.90L166.50-47.90Q164-47.90 161.95-45.65L161.95-45.65L161.95-45.65Q159.90-43.40 159.90-40.60L159.90-40.60L159.90-40.60Q159.90-38.60 161.50-37L161.50-37L161.50-37Q163.80-34.80 169.70-31.20L169.70-31.20L169.70-31.20Q175.60-27.60 177.85-24.65L177.85-24.65L177.85-24.65Q180.10-21.70 180.10-17.65L180.10-17.65L180.10-17.65Q180.10-13.60 178.15-9.90L178.15-9.90L178.15-9.90Q176.20-6.20 172.70-3.60L172.70-3.60L172.70-3.60Q165.20 2 153.20 2L153.20 2L153.20 2Q146.70 2 141.70-1.40L141.70-1.40L141.70-1.40Q136.70-4.70 136.70-8.60L136.70-8.60L136.70-8.60Q136.70-12.50 139.55-14.80L139.55-14.80L139.55-14.80Q142.40-17.10 146.60-17.10L146.60-17.10L146.60-17.10Q150.80-17.10 153.40-15.50L153.40-15.50L153.40-15.50Q152.10-12.20 152.10-10L152.10-10L152.10-10Q152.10-3.40 157.70-3.40L157.70-3.40L157.70-3.40Q160.10-3.40 161.70-4.90L161.70-4.90L161.70-4.90Q163.30-6.40 163.30-9L163.30-9L163.30-9Q163.30-14.10 154.70-19.50L154.70-19.50L154.70-19.50Q147.70-24.10 146.10-25.90L146.10-25.90L146.10-25.90Q143.40-29.10 143.40-33.10L143.40-33.10L143.40-33.10Q143.40-37.10 145.30-40.90L145.30-40.90L145.30-40.90Q147.20-44.70 150.70-47.40L150.70-47.40L150.70-47.40Q158-53 170.70-53L170.70-53L170.70-53Q177.20-53 181.05-50.40L181.05-50.40L181.05-50.40Q184.90-47.80 184.90-43.40L184.90-43.40L184.90-43.40Q184.90-39 182.25-36.50L182.25-36.50L182.25-36.50Q179.60-34 174.80-34L174.80-34L174.80-34Q171.50-34 169.90-35.10ZM190.20-10L190.20-10L190.20-10Q190.20-12.70 191.60-19.50L191.60-19.50L196.90-46.50L191-46.50L191.40-49.50L191.40-49.50Q203.40-53.10 215-61.90L215-61.90L219.80-61.90L217.40-51L225.20-51L224.30-46.50L216.60-46.50L211.50-19.50L211.50-19.50Q210.20-13.30 210.20-11.20L210.20-11.20L210.20-11.20Q210.20-6.40 214.40-5.40L214.40-5.40L214.40-5.40Q213.40-2 209.80 0L209.80 0L209.80 0Q206.20 2 201.10 2L201.10 2L201.10 2Q196 2 193.10-1.20L193.10-1.20L193.10-1.20Q190.20-4.40 190.20-10ZM276.90-20.70L276.90-20.70L276.90-20.70Q279.50-18.80 279.50-14.75L279.50-14.75L279.50-14.75Q279.50-10.70 277.75-7.85L277.75-7.85L277.75-7.85Q276-5 272.60-2.80L272.60-2.80L272.60-2.80Q265.30 1.90 252.55 1.90L252.55 1.90L252.55 1.90Q239.80 1.90 232.85-4.75L232.85-4.75L232.85-4.75Q225.90-11.40 225.90-23.20L225.90-23.20L225.90-23.20Q225.90-39.90 234.60-52.60L234.60-52.60L234.60-52.60Q241.20-62 253-66L253-66L253-66Q259.10-68 265.10-68L265.10-68L265.10-68Q271.10-68 274.80-67.20L274.80-67.20L274.80-67.20Q278.50-66.40 281.30-64.80L281.30-64.80L281.30-64.80Q287.40-61.30 287.40-55.70L287.40-55.70L287.40-55.70Q287.40-50.60 282.60-46.80L282.60-46.80L282.60-46.80Q278.20-43.40 274.60-43.40L274.60-43.40L274.60-43.40Q271-43.40 269.50-43.90L269.50-43.90L269.50-43.90Q269.90-47.50 269.90-49.85L269.90-49.85L269.90-49.85Q269.90-52.20 269.80-53.90L269.80-53.90L269.80-53.90Q269.70-55.60 269.20-57.20L269.20-57.20L269.20-57.20Q268.20-60.90 265.15-60.90L265.15-60.90L265.15-60.90Q262.10-60.90 259.05-58.05L259.05-58.05L259.05-58.05Q256-55.20 253.40-50.40L253.40-50.40L253.40-50.40Q247.50-39.50 247.50-26.60L247.50-26.60L247.50-26.60Q247.50-20.40 251-16.85L251-16.85L251-16.85Q254.50-13.30 262-13.30L262-13.30L262-13.30Q267.60-13.30 272.90-17L272.90-17L272.90-17Q275.20-18.60 276.90-20.70ZM338.10-11.10L338.10-11.10L338.10-11.10Q338.10-6.70 342.60-5.40L342.60-5.40L342.60-5.40Q341.50-1.70 337.20 0.30L337.20 0.30L337.20 0.30Q333.60 2 329.65 2L329.65 2L329.65 2Q325.70 2 323.65 0.95L323.65 0.95L323.65 0.95Q321.60-0.10 320.50-1.80L320.50-1.80L320.50-1.80Q318.70-4.40 318.70-9.30L318.70-9.30L318.70-9.30Q318.70-12.20 320.30-20.20L320.30-20.20L321.70-27.80L321.70-27.80Q323.40-36.50 323.40-39.70L323.40-39.70L323.40-39.70Q323.40-45.30 320.30-45.30L320.30-45.30L320.30-45.30Q316.40-45.30 313.90-39.60L313.90-39.60L313.90-39.60Q312.90-37.40 312.20-34.10L312.20-34.10L305.40 0L285.30 2L299.40-70L319.50-72L318.70-68L318.70-68Q315.90-52.60 313.50-47.40L313.50-47.40L313.50-47.40Q319.10-53 329.40-53L329.40-53L329.40-53Q340.30-53 342.30-45.80L342.30-45.80L342.30-45.80Q343-43.50 343-41.50L343-41.50L343-41.50Q343-39.50 342.85-37.95L342.85-37.95L342.85-37.95Q342.70-36.40 342.20-33.60L342.20-33.60L340.90-26.40L338.60-15.10L338.60-15.10Q338.10-12.80 338.10-11.10ZM355.05-3L355.05-3L355.05-3Q352.70-5.60 351.65-9.70L351.65-9.70L351.65-9.70Q350.60-13.80 350.60-20.50L350.60-20.50L350.60-20.50Q350.60-27.20 352.90-33.30L352.90-33.30L352.90-33.30Q355.20-39.40 359.40-43.80L359.40-43.80L359.40-43.80Q368-53 382.20-53L382.20-53L382.20-53Q387.30-53 391-51.30L391-51.30L408.10-53L400.70-14L400.70-14Q400.40-12.80 400.40-10.60L400.40-10.60L400.40-10.60Q400.40-8.40 401.75-7L401.75-7L401.75-7Q403.10-5.60 405.10-5.40L405.10-5.40L405.10-5.40Q404.10-2 400.45 0L400.45 0L400.45 0Q396.80 2 392.70 2L392.70 2L392.70 2Q388.60 2 385.85 0.45L385.85 0.45L385.85 0.45Q383.10-1.10 382.30-3.70L382.30-3.70L382.30-3.70Q380.70-1.20 377.30 0.40L377.30 0.40L377.30 0.40Q373.90 2 369.35 2L369.35 2L369.35 2Q364.80 2 361.10 0.80L361.10 0.80L361.10 0.80Q357.40-0.40 355.05-3ZM376.15-43.60L376.15-43.60L376.15-43.60Q375-41.80 374-38.75L374-38.75L374-38.75Q373-35.70 371.35-27.55L371.35-27.55L371.35-27.55Q369.70-19.40 369.70-13.60L369.70-13.60L369.70-13.60Q369.70-7.80 370.60-6.10L370.60-6.10L370.60-6.10Q371.50-4.40 373.10-4.40L373.10-4.40L373.10-4.40Q376.30-4.40 378.65-7.45L378.65-7.45L378.65-7.45Q381-10.50 381.90-15.90L381.90-15.90L387.20-45.20L387.20-45.20Q385.10-47 382.65-47L382.65-47L382.65-47Q380.20-47 378.75-46.20L378.75-46.20L378.75-46.20Q377.30-45.40 376.15-43.60ZM415.10-10L415.10-10L415.10-10Q415.10-12.70 416.50-19.50L416.50-19.50L421.80-46.50L415.90-46.50L416.30-49.50L416.30-49.50Q428.30-53.10 439.90-61.90L439.90-61.90L444.70-61.90L442.30-51L450.10-51L449.20-46.50L441.50-46.50L436.40-19.50L436.40-19.50Q435.10-13.30 435.10-11.20L435.10-11.20L435.10-11.20Q435.10-6.40 439.30-5.40L439.30-5.40L439.30-5.40Q438.30-2 434.70 0L434.70 0L434.70 0Q431.10 2 426 2L426 2L426 2Q420.90 2 418-1.20L418-1.20L418-1.20Q415.10-4.40 415.10-10Z" fill="url(#editing-shiny-gradient)"></path></g></g><g filter="url(#editing-shiny2)"><g transform="translate(26.099810004234314, 112.5000057220459)"><path d="M47.20-53L47.20-53L47.20-53Q39.10-53 33.20-55.70L33.20-55.70L30-39.50L49.30-39.50L49.30-39.50Q49.30-34.20 46.65-30.85L46.65-30.85L46.65-30.85Q44-27.50 39.20-27.50L39.20-27.50L39.20-27.50Q34-27.50 29.20-29.40L29.20-29.40L29.20-29.40Q28.20-29.80 28.10-29.90L28.10-29.90L22.40 0L0.60 0L13.30-66L57.90-66L57.90-66Q57.90-59.90 55.05-56.45L55.05-56.45L55.05-56.45Q52.20-53 47.20-53ZM79.40-5.50L79.40-5.50L79.40-5.50Q76.30 2 66.40 2L66.40 2L66.40 2Q61.30 2 58.10-1.50L58.10-1.50L58.10-1.50Q55.40-4.60 55.40-7.70L55.40-7.70L55.40-7.70Q55.40-15.80 59.10-31.60L59.10-31.60L62.80-51L83.10-53L77-21.40L77-21.40Q75.30-14 75.30-11.40L75.30-11.40L75.30-11.40Q75.30-5.70 79.40-5.50ZM64.60-64.90L64.60-64.90L64.60-64.90Q64.60-68.80 67.85-70.90L67.85-70.90L67.85-70.90Q71.10-73 75.80-73L75.80-73L75.80-73Q80.50-73 83.35-70.90L83.35-70.90L83.35-70.90Q86.20-68.80 86.20-64.90L86.20-64.90L86.20-64.90Q86.20-61 83.05-59L83.05-59L83.05-59Q79.90-57 75.20-57L75.20-57L75.20-57Q70.50-57 67.55-59L67.55-59L67.55-59Q64.60-61 64.60-64.90ZM119.20-28.10L119.20-28.10L119.20-28.10Q122.80-34.50 122.80-41L122.80-41L122.80-41Q122.80-45.30 119.70-45.30L119.70-45.30L119.70-45.30Q117.30-45.30 114.80-41.20L114.80-41.20L114.80-41.20Q112.20-37.10 111.40-31.80L111.40-31.80L106.20 0L85.50 2L95.70-51L112.20-53L110.40-42.90L110.40-42.90Q115.30-53 126.30-53L126.30-53L126.30-53Q132.10-53 135.25-50L135.25-50L135.25-50Q138.40-47 138.40-40.85L138.40-40.85L138.40-40.85Q138.40-34.70 134.35-30.80L134.35-30.80L134.35-30.80Q130.30-26.90 123.40-26.90L123.40-26.90L123.40-26.90Q120.40-26.90 119.20-28.10ZM169.90-35.10L169.90-35.10L169.90-35.10Q171.30-38.80 171.30-42L171.30-42L171.30-42Q171.30-47.90 166.50-47.90L166.50-47.90L166.50-47.90Q164-47.90 161.95-45.65L161.95-45.65L161.95-45.65Q159.90-43.40 159.90-40.60L159.90-40.60L159.90-40.60Q159.90-38.60 161.50-37L161.50-37L161.50-37Q163.80-34.80 169.70-31.20L169.70-31.20L169.70-31.20Q175.60-27.60 177.85-24.65L177.85-24.65L177.85-24.65Q180.10-21.70 180.10-17.65L180.10-17.65L180.10-17.65Q180.10-13.60 178.15-9.90L178.15-9.90L178.15-9.90Q176.20-6.20 172.70-3.60L172.70-3.60L172.70-3.60Q165.20 2 153.20 2L153.20 2L153.20 2Q146.70 2 141.70-1.40L141.70-1.40L141.70-1.40Q136.70-4.70 136.70-8.60L136.70-8.60L136.70-8.60Q136.70-12.50 139.55-14.80L139.55-14.80L139.55-14.80Q142.40-17.10 146.60-17.10L146.60-17.10L146.60-17.10Q150.80-17.10 153.40-15.50L153.40-15.50L153.40-15.50Q152.10-12.20 152.10-10L152.10-10L152.10-10Q152.10-3.40 157.70-3.40L157.70-3.40L157.70-3.40Q160.10-3.40 161.70-4.90L161.70-4.90L161.70-4.90Q163.30-6.40 163.30-9L163.30-9L163.30-9Q163.30-14.10 154.70-19.50L154.70-19.50L154.70-19.50Q147.70-24.10 146.10-25.90L146.10-25.90L146.10-25.90Q143.40-29.10 143.40-33.10L143.40-33.10L143.40-33.10Q143.40-37.10 145.30-40.90L145.30-40.90L145.30-40.90Q147.20-44.70 150.70-47.40L150.70-47.40L150.70-47.40Q158-53 170.70-53L170.70-53L170.70-53Q177.20-53 181.05-50.40L181.05-50.40L181.05-50.40Q184.90-47.80 184.90-43.40L184.90-43.40L184.90-43.40Q184.90-39 182.25-36.50L182.25-36.50L182.25-36.50Q179.60-34 174.80-34L174.80-34L174.80-34Q171.50-34 169.90-35.10ZM190.20-10L190.20-10L190.20-10Q190.20-12.70 191.60-19.50L191.60-19.50L196.90-46.50L191-46.50L191.40-49.50L191.40-49.50Q203.40-53.10 215-61.90L215-61.90L219.80-61.90L217.40-51L225.20-51L224.30-46.50L216.60-46.50L211.50-19.50L211.50-19.50Q210.20-13.30 210.20-11.20L210.20-11.20L210.20-11.20Q210.20-6.40 214.40-5.40L214.40-5.40L214.40-5.40Q213.40-2 209.80 0L209.80 0L209.80 0Q206.20 2 201.10 2L201.10 2L201.10 2Q196 2 193.10-1.20L193.10-1.20L193.10-1.20Q190.20-4.40 190.20-10ZM276.90-20.70L276.90-20.70L276.90-20.70Q279.50-18.80 279.50-14.75L279.50-14.75L279.50-14.75Q279.50-10.70 277.75-7.85L277.75-7.85L277.75-7.85Q276-5 272.60-2.80L272.60-2.80L272.60-2.80Q265.30 1.90 252.55 1.90L252.55 1.90L252.55 1.90Q239.80 1.90 232.85-4.75L232.85-4.75L232.85-4.75Q225.90-11.40 225.90-23.20L225.90-23.20L225.90-23.20Q225.90-39.90 234.60-52.60L234.60-52.60L234.60-52.60Q241.20-62 253-66L253-66L253-66Q259.10-68 265.10-68L265.10-68L265.10-68Q271.10-68 274.80-67.20L274.80-67.20L274.80-67.20Q278.50-66.40 281.30-64.80L281.30-64.80L281.30-64.80Q287.40-61.30 287.40-55.70L287.40-55.70L287.40-55.70Q287.40-50.60 282.60-46.80L282.60-46.80L282.60-46.80Q278.20-43.40 274.60-43.40L274.60-43.40L274.60-43.40Q271-43.40 269.50-43.90L269.50-43.90L269.50-43.90Q269.90-47.50 269.90-49.85L269.90-49.85L269.90-49.85Q269.90-52.20 269.80-53.90L269.80-53.90L269.80-53.90Q269.70-55.60 269.20-57.20L269.20-57.20L269.20-57.20Q268.20-60.90 265.15-60.90L265.15-60.90L265.15-60.90Q262.10-60.90 259.05-58.05L259.05-58.05L259.05-58.05Q256-55.20 253.40-50.40L253.40-50.40L253.40-50.40Q247.50-39.50 247.50-26.60L247.50-26.60L247.50-26.60Q247.50-20.40 251-16.85L251-16.85L251-16.85Q254.50-13.30 262-13.30L262-13.30L262-13.30Q267.60-13.30 272.90-17L272.90-17L272.90-17Q275.20-18.60 276.90-20.70ZM338.10-11.10L338.10-11.10L338.10-11.10Q338.10-6.70 342.60-5.40L342.60-5.40L342.60-5.40Q341.50-1.70 337.20 0.30L337.20 0.30L337.20 0.30Q333.60 2 329.65 2L329.65 2L329.65 2Q325.70 2 323.65 0.95L323.65 0.95L323.65 0.95Q321.60-0.10 320.50-1.80L320.50-1.80L320.50-1.80Q318.70-4.40 318.70-9.30L318.70-9.30L318.70-9.30Q318.70-12.20 320.30-20.20L320.30-20.20L321.70-27.80L321.70-27.80Q323.40-36.50 323.40-39.70L323.40-39.70L323.40-39.70Q323.40-45.30 320.30-45.30L320.30-45.30L320.30-45.30Q316.40-45.30 313.90-39.60L313.90-39.60L313.90-39.60Q312.90-37.40 312.20-34.10L312.20-34.10L305.40 0L285.30 2L299.40-70L319.50-72L318.70-68L318.70-68Q315.90-52.60 313.50-47.40L313.50-47.40L313.50-47.40Q319.10-53 329.40-53L329.40-53L329.40-53Q340.30-53 342.30-45.80L342.30-45.80L342.30-45.80Q343-43.50 343-41.50L343-41.50L343-41.50Q343-39.50 342.85-37.95L342.85-37.95L342.85-37.95Q342.70-36.40 342.20-33.60L342.20-33.60L340.90-26.40L338.60-15.10L338.60-15.10Q338.10-12.80 338.10-11.10ZM355.05-3L355.05-3L355.05-3Q352.70-5.60 351.65-9.70L351.65-9.70L351.65-9.70Q350.60-13.80 350.60-20.50L350.60-20.50L350.60-20.50Q350.60-27.20 352.90-33.30L352.90-33.30L352.90-33.30Q355.20-39.40 359.40-43.80L359.40-43.80L359.40-43.80Q368-53 382.20-53L382.20-53L382.20-53Q387.30-53 391-51.30L391-51.30L408.10-53L400.70-14L400.70-14Q400.40-12.80 400.40-10.60L400.40-10.60L400.40-10.60Q400.40-8.40 401.75-7L401.75-7L401.75-7Q403.10-5.60 405.10-5.40L405.10-5.40L405.10-5.40Q404.10-2 400.45 0L400.45 0L400.45 0Q396.80 2 392.70 2L392.70 2L392.70 2Q388.60 2 385.85 0.45L385.85 0.45L385.85 0.45Q383.10-1.10 382.30-3.70L382.30-3.70L382.30-3.70Q380.70-1.20 377.30 0.40L377.30 0.40L377.30 0.40Q373.90 2 369.35 2L369.35 2L369.35 2Q364.80 2 361.10 0.80L361.10 0.80L361.10 0.80Q357.40-0.40 355.05-3ZM376.15-43.60L376.15-43.60L376.15-43.60Q375-41.80 374-38.75L374-38.75L374-38.75Q373-35.70 371.35-27.55L371.35-27.55L371.35-27.55Q369.70-19.40 369.70-13.60L369.70-13.60L369.70-13.60Q369.70-7.80 370.60-6.10L370.60-6.10L370.60-6.10Q371.50-4.40 373.10-4.40L373.10-4.40L373.10-4.40Q376.30-4.40 378.65-7.45L378.65-7.45L378.65-7.45Q381-10.50 381.90-15.90L381.90-15.90L387.20-45.20L387.20-45.20Q385.10-47 382.65-47L382.65-47L382.65-47Q380.20-47 378.75-46.20L378.75-46.20L378.75-46.20Q377.30-45.40 376.15-43.60ZM415.10-10L415.10-10L415.10-10Q415.10-12.70 416.50-19.50L416.50-19.50L421.80-46.50L415.90-46.50L416.30-49.50L416.30-49.50Q428.30-53.10 439.90-61.90L439.90-61.90L444.70-61.90L442.30-51L450.10-51L449.20-46.50L441.50-46.50L436.40-19.50L436.40-19.50Q435.10-13.30 435.10-11.20L435.10-11.20L435.10-11.20Q435.10-6.40 439.30-5.40L439.30-5.40L439.30-5.40Q438.30-2 434.70 0L434.70 0L434.70 0Q431.10 2 426 2L426 2L426 2Q420.90 2 418-1.20L418-1.20L418-1.20Q415.10-4.40 415.10-10Z" fill="url(#editing-shiny-gradient2)"></path></g></g><style>text {
  font-size: 64px;
  font-family: Arial Black;
  dominant-baseline: central;
  text-anchor: middle;
}</style></svg>